<?xml version="1.0" encoding="UTF-8" standalone="no"?>
<!DOCTYPE svg PUBLIC "-//W3C//DTD SVG 1.1//EN"
 "http://www.w3.org/Graphics/SVG/1.1/DTD/svg11.dtd">
<!-- Generated by graphviz version 2.43.0 (0)
 -->
<!-- Title: List Pages: 1 -->
<svg width="1645pt" height="156pt"
 viewBox="0.00 0.00 1645.00 155.50" xmlns="http://www.w3.org/2000/svg" xmlns:xlink="http://www.w3.org/1999/xlink">
<g id="graph0" class="graph" transform="scale(1 1) rotate(0) translate(4 151.5)">
<title>List</title>
<polygon fill="white" stroke="transparent" points="-4,4 -4,-151.5 1641,-151.5 1641,4 -4,4"/>
<!-- node0 -->
<g id="node1" class="node">
<title>node0</title>
<polygon fill="lightblue" stroke="black" points="0,-0.5 0,-92.5 154,-92.5 154,-0.5 0,-0.5"/>
<text text-anchor="middle" x="77" y="-77.3" font-family="Times,serif" font-size="14.00">value: 0</text>
<polyline fill="none" stroke="black" points="0,-69.5 154,-69.5 "/>
<text text-anchor="middle" x="77" y="-54.3" font-family="Times,serif" font-size="14.00">Ridx: 0</text>
<polyline fill="none" stroke="black" points="0,-46.5 154,-46.5 "/>
<text text-anchor="middle" x="77" y="-31.3" font-family="Times,serif" font-size="14.00">Uidx: None</text>
<polyline fill="none" stroke="black" points="0,-23.5 154,-23.5 "/>
<text text-anchor="middle" x="38.5" y="-8.3" font-family="Times,serif" font-size="14.00">Rprev: 3</text>
<polyline fill="none" stroke="black" points="77,-0.5 77,-23.5 "/>
<text text-anchor="middle" x="115.5" y="-8.3" font-family="Times,serif" font-size="14.00">Rnext: 1</text>
</g>
<!-- node1 -->
<g id="node2" class="node">
<title>node1</title>
<polygon fill="lightblue" stroke="black" points="190,-0.5 190,-92.5 344,-92.5 344,-0.5 190,-0.5"/>
<text text-anchor="middle" x="267" y="-77.3" font-family="Times,serif" font-size="14.00">value: 10</text>
<polyline fill="none" stroke="black" points="190,-69.5 344,-69.5 "/>
<text text-anchor="middle" x="267" y="-54.3" font-family="Times,serif" font-size="14.00">Ridx: 1</text>
<polyline fill="none" stroke="black" points="190,-46.5 344,-46.5 "/>
<text text-anchor="middle" x="267" y="-31.3" font-family="Times,serif" font-size="14.00">Uidx: 0</text>
<polyline fill="none" stroke="black" points="190,-23.5 344,-23.5 "/>
<text text-anchor="middle" x="228.5" y="-8.3" font-family="Times,serif" font-size="14.00">Rprev: 0</text>
<polyline fill="none" stroke="black" points="267,-0.5 267,-23.5 "/>
<text text-anchor="middle" x="305.5" y="-8.3" font-family="Times,serif" font-size="14.00">Rnext: 4</text>
</g>
<!-- node0&#45;&gt;node1 -->
<g id="edge1" class="edge">
<title>node0:f3&#45;&gt;node1:f2</title>
<path fill="none" stroke="green" d="M163.03,-6.89C169.71,-4.04 174.26,-4.04 180.94,-6.87"/>
<polygon fill="green" stroke="green" points="161.31,-3.83 154,-11.5 164.5,-10.07 161.31,-3.83"/>
<polygon fill="green" stroke="green" points="179.5,-10.07 190,-11.5 182.69,-3.83 179.5,-10.07"/>
</g>
<!-- node0&#45;&gt;node1 -->
<g id="edge10" class="edge">
<title>node0:f3&#45;&gt;node1:f2</title>
<path fill="none" stroke="white" d="M163.46,-16.29C169.74,-18.89 174.17,-18.9 180.44,-16.34"/>
<polygon fill="white" stroke="white" points="164.88,-13.09 154.37,-11.71 161.72,-19.34 164.88,-13.09"/>
<polygon fill="white" stroke="white" points="182.27,-19.33 189.63,-11.71 179.12,-13.08 182.27,-19.33"/>
</g>
<!-- node4 -->
<g id="node5" class="node">
<title>node4</title>
<polygon fill="lightblue" stroke="black" points="380,-0.5 380,-92.5 534,-92.5 534,-0.5 380,-0.5"/>
<text text-anchor="middle" x="457" y="-77.3" font-family="Times,serif" font-size="14.00">value: 40</text>
<polyline fill="none" stroke="black" points="380,-69.5 534,-69.5 "/>
<text text-anchor="middle" x="457" y="-54.3" font-family="Times,serif" font-size="14.00">Ridx: 4</text>
<polyline fill="none" stroke="black" points="380,-46.5 534,-46.5 "/>
<text text-anchor="middle" x="457" y="-31.3" font-family="Times,serif" font-size="14.00">Uidx: 3</text>
<polyline fill="none" stroke="black" points="380,-23.5 534,-23.5 "/>
<text text-anchor="middle" x="418.5" y="-8.3" font-family="Times,serif" font-size="14.00">Rprev: 1</text>
<polyline fill="none" stroke="black" points="457,-0.5 457,-23.5 "/>
<text text-anchor="middle" x="495.5" y="-8.3" font-family="Times,serif" font-size="14.00">Rnext: 5</text>
</g>
<!-- node1&#45;&gt;node4 -->
<g id="edge2" class="edge">
<title>node1:f3&#45;&gt;node4:f2</title>
<path fill="none" stroke="green" d="M354.12,-11.5C359.79,-11.5 363.99,-11.5 369.61,-11.5"/>
<polygon fill="green" stroke="green" points="354,-8 344,-11.5 354,-15 354,-8"/>
<polygon fill="green" stroke="green" points="370,-15 380,-11.5 370,-8 370,-15"/>
</g>
<!-- node2 -->
<g id="node3" class="node">
<title>node2</title>
<polygon fill="pink" stroke="black" points="950,-0.5 950,-92.5 1155,-92.5 1155,-0.5 950,-0.5"/>
<text text-anchor="middle" x="1052.5" y="-77.3" font-family="Times,serif" font-size="14.00">value: 0</text>
<polyline fill="none" stroke="black" points="950,-69.5 1155,-69.5 "/>
<text text-anchor="middle" x="1052.5" y="-54.3" font-family="Times,serif" font-size="14.00">Ridx: 2</text>
<polyline fill="none" stroke="black" points="950,-46.5 1155,-46.5 "/>
<text text-anchor="middle" x="1052.5" y="-31.3" font-family="Times,serif" font-size="14.00">Uidx: 1</text>
<polyline fill="none" stroke="black" points="950,-23.5 1155,-23.5 "/>
<text text-anchor="middle" x="1014" y="-8.3" font-family="Times,serif" font-size="14.00">Rprev: POIZON</text>
<polyline fill="none" stroke="black" points="1078,-0.5 1078,-23.5 "/>
<text text-anchor="middle" x="1116.5" y="-8.3" font-family="Times,serif" font-size="14.00">Rnext: 6</text>
</g>
<!-- node6 -->
<g id="node7" class="node">
<title>node6</title>
<polygon fill="pink" stroke="black" points="1191,-0.5 1191,-92.5 1396,-92.5 1396,-0.5 1191,-0.5"/>
<text text-anchor="middle" x="1293.5" y="-77.3" font-family="Times,serif" font-size="14.00">value: 0</text>
<polyline fill="none" stroke="black" points="1191,-69.5 1396,-69.5 "/>
<text text-anchor="middle" x="1293.5" y="-54.3" font-family="Times,serif" font-size="14.00">Ridx: 6</text>
<polyline fill="none" stroke="black" points="1191,-46.5 1396,-46.5 "/>
<text text-anchor="middle" x="1293.5" y="-31.3" font-family="Times,serif" font-size="14.00">Uidx: 5</text>
<polyline fill="none" stroke="black" points="1191,-23.5 1396,-23.5 "/>
<text text-anchor="middle" x="1255" y="-8.3" font-family="Times,serif" font-size="14.00">Rprev: POIZON</text>
<polyline fill="none" stroke="black" points="1319,-0.5 1319,-23.5 "/>
<text text-anchor="middle" x="1357.5" y="-8.3" font-family="Times,serif" font-size="14.00">Rnext: 7</text>
</g>
<!-- node2&#45;&gt;node6 -->
<g id="edge8" class="edge">
<title>node2&#45;&gt;node6</title>
<path fill="none" stroke="purple" stroke-width="2" d="M1155.2,-46.5C1163.7,-46.5 1172.31,-46.5 1180.87,-46.5"/>
<polygon fill="purple" stroke="purple" stroke-width="2" points="1180.89,-50 1190.89,-46.5 1180.89,-43 1180.89,-50"/>
</g>
<!-- node3 -->
<g id="node4" class="node">
<title>node3</title>
<polygon fill="lightblue" stroke="black" points="760,-0.5 760,-92.5 914,-92.5 914,-0.5 760,-0.5"/>
<text text-anchor="middle" x="837" y="-77.3" font-family="Times,serif" font-size="14.00">value: 30</text>
<polyline fill="none" stroke="black" points="760,-69.5 914,-69.5 "/>
<text text-anchor="middle" x="837" y="-54.3" font-family="Times,serif" font-size="14.00">Ridx: 3</text>
<polyline fill="none" stroke="black" points="760,-46.5 914,-46.5 "/>
<text text-anchor="middle" x="837" y="-31.3" font-family="Times,serif" font-size="14.00">Uidx: 2</text>
<polyline fill="none" stroke="black" points="760,-23.5 914,-23.5 "/>
<text text-anchor="middle" x="798.5" y="-8.3" font-family="Times,serif" font-size="14.00">Rprev: 5</text>
<polyline fill="none" stroke="black" points="837,-0.5 837,-23.5 "/>
<text text-anchor="middle" x="875.5" y="-8.3" font-family="Times,serif" font-size="14.00">Rnext: 0</text>
</g>
<!-- node3&#45;&gt;node2 -->
<g id="edge12" class="edge">
<title>node3:f3&#45;&gt;node2:f2</title>
<path fill="none" stroke="white" d="M914,-11.5C926.5,-4.47 931.68,-2.93 940.97,-6.89"/>
<polygon fill="white" stroke="white" points="939.5,-10.07 950,-11.5 942.69,-3.83 939.5,-10.07"/>
</g>
<!-- node3&#45;&gt;node2 -->
<g id="edge13" class="edge">
<title>node3:f3&#45;&gt;node2:f2</title>
<path fill="none" stroke="white" d="M914.37,-11.71C926.41,-18.45 931.61,-19.98 940.54,-16.29"/>
<polygon fill="white" stroke="white" points="942.28,-19.34 949.63,-11.71 939.13,-13.09 942.28,-19.34"/>
</g>
<!-- node5 -->
<g id="node6" class="node">
<title>node5</title>
<polygon fill="lightblue" stroke="black" points="570,-0.5 570,-92.5 724,-92.5 724,-0.5 570,-0.5"/>
<text text-anchor="middle" x="647" y="-77.3" font-family="Times,serif" font-size="14.00">value: 50</text>
<polyline fill="none" stroke="black" points="570,-69.5 724,-69.5 "/>
<text text-anchor="middle" x="647" y="-54.3" font-family="Times,serif" font-size="14.00">Ridx: 5</text>
<polyline fill="none" stroke="black" points="570,-46.5 724,-46.5 "/>
<text text-anchor="middle" x="647" y="-31.3" font-family="Times,serif" font-size="14.00">Uidx: 4</text>
<polyline fill="none" stroke="black" points="570,-23.5 724,-23.5 "/>
<text text-anchor="middle" x="608.5" y="-8.3" font-family="Times,serif" font-size="14.00">Rprev: 4</text>
<polyline fill="none" stroke="black" points="647,-0.5 647,-23.5 "/>
<text text-anchor="middle" x="685.5" y="-8.3" font-family="Times,serif" font-size="14.00">Rnext: 3</text>
</g>
<!-- node4&#45;&gt;node5 -->
<g id="edge3" class="edge">
<title>node4:f3&#45;&gt;node5:f2</title>
<path fill="none" stroke="green" d="M544.12,-11.5C549.79,-11.5 553.99,-11.5 559.61,-11.5"/>
<polygon fill="green" stroke="green" points="544,-8 534,-11.5 544,-15 544,-8"/>
<polygon fill="green" stroke="green" points="560,-15 570,-11.5 560,-8 560,-15"/>
</g>
<!-- node5&#45;&gt;node3 -->
<g id="edge4" class="edge">
<title>node5:f3&#45;&gt;node3:f2</title>
<path fill="none" stroke="green" d="M733.03,-6.89C739.71,-4.04 744.26,-4.04 750.94,-6.87"/>
<polygon fill="green" stroke="green" points="731.31,-3.83 724,-11.5 734.5,-10.07 731.31,-3.83"/>
<polygon fill="green" stroke="green" points="749.5,-10.07 760,-11.5 752.69,-3.83 749.5,-10.07"/>
</g>
<!-- node5&#45;&gt;node3 -->
<g id="edge11" class="edge">
<title>node5:f3&#45;&gt;node3:f2</title>
<path fill="none" stroke="white" d="M724.37,-11.71C736.41,-18.45 741.61,-19.98 750.54,-16.29"/>
<polygon fill="white" stroke="white" points="752.28,-19.34 759.63,-11.71 749.13,-13.09 752.28,-19.34"/>
</g>
<!-- node7 -->
<g id="node8" class="node">
<title>node7</title>
<polygon fill="pink" stroke="black" points="1432,-0.5 1432,-92.5 1637,-92.5 1637,-0.5 1432,-0.5"/>
<text text-anchor="middle" x="1534.5" y="-77.3" font-family="Times,serif" font-size="14.00">value: 0</text>
<polyline fill="none" stroke="black" points="1432,-69.5 1637,-69.5 "/>
<text text-anchor="middle" x="1534.5" y="-54.3" font-family="Times,serif" font-size="14.00">Ridx: 7</text>
<polyline fill="none" stroke="black" points="1432,-46.5 1637,-46.5 "/>
<text text-anchor="middle" x="1534.5" y="-31.3" font-family="Times,serif" font-size="14.00">Uidx: 6</text>
<polyline fill="none" stroke="black" points="1432,-23.5 1637,-23.5 "/>
<text text-anchor="middle" x="1496" y="-8.3" font-family="Times,serif" font-size="14.00">Rprev: POIZON</text>
<polyline fill="none" stroke="black" points="1560,-0.5 1560,-23.5 "/>
<text text-anchor="middle" x="1598.5" y="-8.3" font-family="Times,serif" font-size="14.00">Rnext: 0</text>
</g>
<!-- node6&#45;&gt;node7 -->
<g id="edge9" class="edge">
<title>node6&#45;&gt;node7</title>
<path fill="none" stroke="purple" stroke-width="2" d="M1396.2,-46.5C1404.7,-46.5 1413.31,-46.5 1421.87,-46.5"/>
<polygon fill="purple" stroke="purple" stroke-width="2" points="1421.89,-50 1431.89,-46.5 1421.89,-43 1421.89,-50"/>
</g>
<!-- head -->
<g id="node9" class="node">
<title>head</title>
<polygon fill="lightblue" stroke="transparent" points="107,-147.5 47,-147.5 47,-111.5 107,-111.5 107,-147.5"/>
<text text-anchor="middle" x="77" y="-125.8" font-family="Times,serif" font-size="14.00">HEAD</text>
</g>
<!-- head&#45;&gt;node1 -->
<g id="edge5" class="edge">
<title>head&#45;&gt;node1</title>
<path fill="none" stroke="green" stroke-width="2" d="M107.15,-119.56C121.41,-114.49 138.75,-108.03 154,-101.5 162.72,-97.76 171.73,-93.7 180.68,-89.52"/>
<polygon fill="green" stroke="green" stroke-width="2" points="182.42,-92.57 189.98,-85.14 179.44,-86.24 182.42,-92.57"/>
</g>
<!-- tail -->
<g id="node10" class="node">
<title>tail</title>
<polygon fill="lightblue" stroke="transparent" points="674,-147.5 620,-147.5 620,-111.5 674,-111.5 674,-147.5"/>
<text text-anchor="middle" x="647" y="-125.8" font-family="Times,serif" font-size="14.00">TAIL</text>
</g>
<!-- tail&#45;&gt;node3 -->
<g id="edge6" class="edge">
<title>tail&#45;&gt;node3:f0</title>
<path fill="none" stroke="orange" stroke-width="2" d="M674.08,-121.01C688.94,-115.89 707.77,-108.95 724,-101.5 737,-95.54 740.49,-86.68 750.12,-83.1"/>
<polygon fill="orange" stroke="orange" stroke-width="2" points="750.69,-86.55 760,-81.5 749.57,-79.64 750.69,-86.55"/>
</g>
<!-- free -->
<g id="node11" class="node">
<title>free</title>
<polygon fill="lightblue" stroke="transparent" points="866,-147.5 808,-147.5 808,-111.5 866,-111.5 866,-147.5"/>
<text text-anchor="middle" x="837" y="-125.8" font-family="Times,serif" font-size="14.00">FREE</text>
</g>
<!-- free&#45;&gt;node2 -->
<g id="edge7" class="edge">
<title>free&#45;&gt;node2</title>
<path fill="none" stroke="purple" stroke-width="2" d="M866.22,-119.31C880.56,-114.08 898.25,-107.55 914,-101.5 922.64,-98.18 931.57,-94.71 940.53,-91.19"/>
<polygon fill="purple" stroke="purple" stroke-width="2" points="941.85,-94.43 949.88,-87.51 939.29,-87.92 941.85,-94.43"/>
</g>
</g>
</svg>
